<svg width="56" height="67" viewBox="0 0 56 67" fill="none" xmlns="http://www.w3.org/2000/svg">
<path d="M8.27189 6.54546C9.65416 6.54546 10.9077 7.09609 11.8162 7.98464L10.6345 9.14155C10.0294 8.54918 9.19368 8.18182 8.27189 8.18182C7.3501 8.18182 6.51439 8.54918 5.90933 9.14155L4.72763 7.98464C5.19248 7.52805 5.74488 7.16587 6.35311 6.91889C6.96134 6.67192 7.61342 6.54501 8.27189 6.54546ZM2.36256 5.66919C3.94122 4.12364 6.0397 3.27273 8.27189 3.27273C10.5041 3.27273 12.6026 4.12364 14.1812 5.66919L12.9995 6.8261C11.7368 5.58982 10.0578 4.9091 8.27189 4.9091C6.48597 4.9091 4.80702 5.58982 3.54426 6.8261L2.36256 5.66919ZM12.8265 0.900828C14.2166 1.47594 15.4796 2.30951 16.5455 3.35537L15.3638 4.51228C13.4692 2.65828 10.9512 1.63637 8.27273 1.63637C5.59427 1.63637 3.07543 2.65746 1.1817 4.51228L0 3.35537C1.08522 2.28996 2.37484 1.44506 3.79471 0.86923C5.21457 0.293399 6.73669 -0.00200131 8.27356 1.02042e-05C9.85306 1.02042e-05 11.3849 0.302737 12.8282 0.900828H12.8265ZM7.43618 10.6364C7.43618 10.4194 7.52423 10.2113 7.68095 10.0578C7.83768 9.90438 8.05025 9.81818 8.27189 9.81818C8.49354 9.81818 8.7061 9.90438 8.86283 10.0578C9.01956 10.2113 9.1076 10.4194 9.1076 10.6364C9.1076 10.8534 9.01956 11.0615 8.86283 11.2149C8.7061 11.3683 8.49354 11.4545 8.27189 11.4545C8.05025 11.4545 7.83768 11.3683 7.68095 11.2149C7.52423 11.0615 7.43618 10.8534 7.43618 10.6364Z" fill="#8B8B8B"/>
<path d="M52.0658 29.2725H34.3633V66.1816H55.9996V32.2252C55.9996 31.4421 55.5852 30.691 54.8474 30.1373C54.1097 29.5836 53.1091 29.2725 52.0658 29.2725ZM42.2311 54.3706H38.2972V51.4179H42.2311V54.3706ZM42.2311 46.9888H38.2972V44.0361H42.2311V46.9888ZM42.2311 39.607H38.2972V36.6543H42.2311V39.607ZM50.0988 54.3706H46.1649V51.4179H50.0988V54.3706ZM50.0988 46.9888H46.1649V44.0361H50.0988V46.9888ZM50.0988 39.607H46.1649V36.6543H50.0988V39.607Z" fill="#8B8B8B"/>
<path d="M27.6023 20.3633H4.21591C3.09778 20.3633 2.02545 20.7044 1.23481 21.3116C0.444175 21.9188 0 22.7424 0 23.6011V66.1815H9.94318V61.5996H21.875V66.1815H31.8182V23.6011C31.8182 22.7424 31.374 21.9188 30.5834 21.3116C29.7927 20.7044 28.7204 20.3633 27.6023 20.3633ZM9.94318 53.9633H5.96591V50.9087H9.94318V53.9633ZM9.94318 46.3269H5.96591V43.2724H9.94318V46.3269ZM9.94318 38.6906H5.96591V35.636H9.94318V38.6906ZM9.94318 31.0542H5.96591V27.9996H9.94318V31.0542ZM17.8977 53.9633H13.9205V50.9087H17.8977V53.9633ZM17.8977 46.3269H13.9205V43.2724H17.8977V46.3269ZM17.8977 38.6906H13.9205V35.636H17.8977V38.6906ZM17.8977 31.0542H13.9205V27.9996H17.8977V31.0542ZM25.8523 53.9633H21.875V50.9087H25.8523V53.9633ZM25.8523 46.3269H21.875V43.2724H25.8523V46.3269ZM25.8523 38.6906H21.875V35.636H25.8523V38.6906ZM25.8523 31.0542H21.875V27.9996H25.8523V31.0542Z" fill="#8B8B8B"/>
<path d="M27.6023 20.3633H4.21591C3.09778 20.3633 2.02545 20.7044 1.23481 21.3116C0.444175 21.9188 0 22.7424 0 23.6011V66.1815H9.94318V61.5996H21.875V66.1815H31.8182V23.6011C31.8182 22.7424 31.374 21.9188 30.5834 21.3116C29.7927 20.7044 28.7204 20.3633 27.6023 20.3633ZM9.94318 53.9633H5.96591V50.9087H9.94318V53.9633ZM9.94318 46.3269H5.96591V43.2724H9.94318V46.3269ZM9.94318 38.6906H5.96591V35.636H9.94318V38.6906ZM9.94318 31.0542H5.96591V27.9996H9.94318V31.0542ZM17.8977 53.9633H13.9205V50.9087H17.8977V53.9633ZM17.8977 46.3269H13.9205V43.2724H17.8977V46.3269ZM17.8977 38.6906H13.9205V35.636H17.8977V38.6906ZM17.8977 31.0542H13.9205V27.9996H17.8977V31.0542ZM25.8523 53.9633H21.875V50.9087H25.8523V53.9633ZM25.8523 46.3269H21.875V43.2724H25.8523V46.3269ZM25.8523 38.6906H21.875V35.636H25.8523V38.6906ZM25.8523 31.0542H21.875V27.9996H25.8523V31.0542Z" fill="#8B8B8B"/>
<rect x="6.36328" y="14" width="5.09091" height="6.36364" fill="#8B8B8B"/>
</svg>
