<svg width="45" height="57" viewBox="0 0 45 57" fill="none" xmlns="http://www.w3.org/2000/svg">
<path d="M29.9298 0H4.57141C3.359 0 2.19624 0.342492 1.33894 0.952132C0.481629 1.56177 0 2.38862 0 3.25078V46.0016H10.7816V41.4015H23.7196V46.0016H34.5012V3.25078C34.5012 2.38862 34.0196 1.56177 33.1623 0.952132C32.305 0.342492 31.1422 0 29.9298 0ZM10.7816 33.7345H6.46898V30.6678H10.7816V33.7345ZM10.7816 26.0676H6.46898V23.0008H10.7816V26.0676ZM10.7816 18.4007H6.46898V15.3339H10.7816V18.4007ZM10.7816 10.7337H6.46898V7.66694H10.7816V10.7337ZM19.4069 33.7345H15.0943V30.6678H19.4069V33.7345ZM19.4069 26.0676H15.0943V23.0008H19.4069V26.0676ZM19.4069 18.4007H15.0943V15.3339H19.4069V18.4007ZM19.4069 10.7337H15.0943V7.66694H19.4069V10.7337ZM28.0322 33.7345H23.7196V30.6678H28.0322V33.7345ZM28.0322 26.0676H23.7196V23.0008H28.0322V26.0676ZM28.0322 18.4007H23.7196V15.3339H28.0322V18.4007ZM28.0322 10.7337H23.7196V7.66694H28.0322V10.7337Z" fill="#8B8B8B"/>
<mask id="path-2-inside-1" fill="white">
<path d="M24.0066 41.6889C25.2577 41.6889 26.4806 41.3516 27.5208 40.7198C28.5609 40.088 29.3717 39.1899 29.8504 38.1392C30.3291 37.0885 30.4544 35.9323 30.2103 34.8169C29.9663 33.7014 29.3639 32.6769 28.4793 31.8727C27.5947 31.0685 26.4676 30.5208 25.2406 30.299C24.0137 30.0771 22.7419 30.191 21.5861 30.6262C20.4303 31.0614 19.4424 31.7984 18.7474 32.744C18.0524 33.6897 17.6814 34.8014 17.6814 35.9387C17.6814 37.4637 18.3478 38.9263 19.534 40.0047C20.7202 41.0831 22.3291 41.6889 24.0066 41.6889ZM36.6571 44.564C37.5954 44.564 38.5125 44.3111 39.2927 43.8372C40.0728 43.3633 40.6809 42.6898 41.0399 41.9017C41.399 41.1137 41.4929 40.2466 41.3099 39.41C41.1268 38.5734 40.675 37.805 40.0116 37.2018C39.3481 36.5987 38.5028 36.188 37.5826 36.0216C36.6624 35.8551 35.7085 35.9406 34.8417 36.267C33.9748 36.5934 33.2339 37.1461 32.7127 37.8554C32.1914 38.5646 31.9132 39.3984 31.9132 40.2513C31.9132 41.3951 32.413 42.4921 33.3026 43.3008C34.1923 44.1096 35.3989 44.564 36.6571 44.564ZM42.9823 54.6269C43.4017 54.6269 43.8039 54.4754 44.1005 54.2058C44.397 53.9362 44.5636 53.5706 44.5636 53.1893C44.5624 51.8458 44.1469 50.5294 43.3644 49.3897C42.5819 48.2499 41.4636 47.3324 40.1365 46.7411C38.8094 46.1499 37.3266 45.9086 35.8563 46.0447C34.386 46.1807 32.9871 46.6887 31.8183 47.511C30.2694 46.1084 28.2984 45.1542 26.1538 44.7687C24.0092 44.3832 21.787 44.5837 19.7675 45.3448C17.748 46.1059 16.0217 47.3936 14.8062 49.0455C13.5907 50.6973 12.9405 52.6395 12.9375 54.6269C12.9375 55.0081 13.1041 55.3738 13.4007 55.6434C13.6972 55.9129 14.0994 56.0644 14.5188 56.0644H33.4945C33.9139 56.0644 34.3161 55.9129 34.6126 55.6434C34.9092 55.3738 35.0758 55.0081 35.0758 54.6269"/>
</mask>
<path d="M24.0066 41.6889C25.2577 41.6889 26.4806 41.3516 27.5208 40.7198C28.5609 40.088 29.3717 39.1899 29.8504 38.1392C30.3291 37.0885 30.4544 35.9323 30.2103 34.8169C29.9663 33.7014 29.3639 32.6769 28.4793 31.8727C27.5947 31.0685 26.4676 30.5208 25.2406 30.299C24.0137 30.0771 22.7419 30.191 21.5861 30.6262C20.4303 31.0614 19.4424 31.7984 18.7474 32.744C18.0524 33.6897 17.6814 34.8014 17.6814 35.9387C17.6814 37.4637 18.3478 38.9263 19.534 40.0047C20.7202 41.0831 22.3291 41.6889 24.0066 41.6889ZM36.6571 44.564C37.5954 44.564 38.5125 44.3111 39.2927 43.8372C40.0728 43.3633 40.6809 42.6898 41.0399 41.9017C41.399 41.1137 41.4929 40.2466 41.3099 39.41C41.1268 38.5734 40.675 37.805 40.0116 37.2018C39.3481 36.5987 38.5028 36.188 37.5826 36.0216C36.6624 35.8551 35.7085 35.9406 34.8417 36.267C33.9748 36.5934 33.2339 37.1461 32.7127 37.8554C32.1914 38.5646 31.9132 39.3984 31.9132 40.2513C31.9132 41.3951 32.413 42.4921 33.3026 43.3008C34.1923 44.1096 35.3989 44.564 36.6571 44.564ZM42.9823 54.6269C43.4017 54.6269 43.8039 54.4754 44.1005 54.2058C44.397 53.9362 44.5636 53.5706 44.5636 53.1893C44.5624 51.8458 44.1469 50.5294 43.3644 49.3897C42.5819 48.2499 41.4636 47.3324 40.1365 46.7411C38.8094 46.1499 37.3266 45.9086 35.8563 46.0447C34.386 46.1807 32.9871 46.6887 31.8183 47.511C30.2694 46.1084 28.2984 45.1542 26.1538 44.7687C24.0092 44.3832 21.787 44.5837 19.7675 45.3448C17.748 46.1059 16.0217 47.3936 14.8062 49.0455C13.5907 50.6973 12.9405 52.6395 12.9375 54.6269C12.9375 55.0081 13.1041 55.3738 13.4007 55.6434C13.6972 55.9129 14.0994 56.0644 14.5188 56.0644H33.4945C33.9139 56.0644 34.3161 55.9129 34.6126 55.6434C34.9092 55.3738 35.0758 55.0081 35.0758 54.6269" fill="#8B8B8B"/>
<path d="M17.6814 35.9387H16.2439H17.6814ZM36.6571 44.564V43.1264V44.564ZM31.9132 40.2513H30.4756H31.9132ZM44.5636 53.1893H46.0012V53.1879L44.5636 53.1893ZM31.8183 47.511L30.8534 48.5766L31.7054 49.3481L32.6454 48.6867L31.8183 47.511ZM12.9375 54.6269L11.4999 54.6247V54.6269H12.9375ZM24.0066 43.1264C25.5131 43.1264 26.9954 42.7209 28.2671 41.9484L26.7744 39.4912C25.9657 39.9824 25.0022 40.2513 24.0066 40.2513V43.1264ZM28.2671 41.9484C29.5397 41.1754 30.5536 40.063 31.1586 38.7352L28.5422 37.5431C28.1897 38.3168 27.5822 39.0005 26.7744 39.4912L28.2671 41.9484ZM31.1586 38.7352C31.7646 37.4052 31.9259 35.9323 31.6147 34.5096L28.806 35.1241C28.9828 35.9323 28.8937 36.7718 28.5422 37.5431L31.1586 38.7352ZM31.6147 34.5096C31.3037 33.0885 30.5406 31.8038 29.4463 30.809L27.5123 32.9364C28.1872 33.5499 28.6288 34.3144 28.806 35.1241L31.6147 34.5096ZM29.4463 30.809C28.3534 29.8154 26.9767 29.152 25.4964 28.8844L24.9848 31.7136C25.9585 31.8896 26.8359 32.3215 27.5123 32.9364L29.4463 30.809ZM25.4964 28.8844C24.0163 28.6167 22.4809 28.7531 21.0795 29.2809L22.0927 31.9715C23.0028 31.6288 24.011 31.5375 24.9848 31.7136L25.4964 28.8844ZM21.0795 29.2809C19.6776 29.8088 18.4578 30.7107 17.5891 31.8927L19.9057 33.5954C20.4271 32.8861 21.183 32.3141 22.0927 31.9715L21.0795 29.2809ZM17.5891 31.8927C16.7189 33.0767 16.2439 34.4848 16.2439 35.9387H19.119C19.119 35.118 19.3859 34.3027 19.9057 33.5954L17.5891 31.8927ZM16.2439 35.9387C16.2439 37.8916 17.0985 39.7333 18.567 41.0684L20.501 38.941C19.5972 38.1193 19.119 37.0359 19.119 35.9387H16.2439ZM18.567 41.0684C20.031 42.3993 21.9897 43.1264 24.0066 43.1264V40.2513C22.6685 40.2513 21.4094 39.7668 20.501 38.941L18.567 41.0684ZM36.6571 46.0015C37.8508 46.0015 39.0274 45.6803 40.039 45.0658L38.5464 42.6085C37.9977 42.9418 37.3399 43.1264 36.6571 43.1264V46.0015ZM40.039 45.0658C41.0516 44.4508 41.8628 43.5628 42.3481 42.4978L39.7317 41.3057C39.4989 41.8167 39.0941 42.2758 38.5464 42.6085L40.039 45.0658ZM42.3481 42.4978C42.8344 41.4304 42.9645 40.2465 42.7142 39.1027L39.9055 39.7173C40.0214 40.2466 39.9635 40.797 39.7317 41.3057L42.3481 42.4978ZM42.7142 39.1027C42.4643 37.9605 41.8517 36.9319 40.9786 36.1381L39.0446 38.2655C39.4983 38.678 39.7894 39.1863 39.9055 39.7173L42.7142 39.1027ZM40.9786 36.1381C40.1068 35.3456 39.0119 34.8192 37.8384 34.6069L37.3268 37.4362C37.9937 37.5568 38.5894 37.8517 39.0446 38.2655L40.9786 36.1381ZM37.8384 34.6069C36.665 34.3948 35.4476 34.5027 34.3351 34.9216L35.3483 37.6123C35.9695 37.3784 36.6597 37.3155 37.3268 37.4362L37.8384 34.6069ZM34.3351 34.9216C33.2221 35.3407 32.2493 36.0585 31.5543 37.004L33.871 38.7067C34.2186 38.2338 34.7276 37.846 35.3483 37.6123L34.3351 34.9216ZM31.5543 37.004C30.8579 37.9516 30.4756 39.0818 30.4756 40.2513H33.3507C33.3507 39.715 33.5249 39.1776 33.871 38.7067L31.5543 37.004ZM30.4756 40.2513C30.4756 41.823 31.1636 43.2991 32.3356 44.3645L34.2696 42.2371C33.6623 41.6851 33.3507 40.9673 33.3507 40.2513H30.4756ZM32.3356 44.3645C33.5031 45.4259 35.0595 46.0015 36.6571 46.0015V43.1264C35.7383 43.1264 34.8815 42.7934 34.2696 42.2371L32.3356 44.3645ZM42.9823 56.0644C43.7411 56.0644 44.4931 55.7916 45.0675 55.2695L43.1335 53.1421C43.1147 53.1591 43.0623 53.1893 42.9823 53.1893V56.0644ZM45.0675 55.2695C45.6464 54.7432 46.0012 53.9984 46.0012 53.1893H43.1261C43.1261 53.1691 43.1307 53.153 43.1351 53.1434C43.1393 53.1341 43.1413 53.135 43.1335 53.1421L45.0675 55.2695ZM46.0012 53.1879C45.9996 51.5455 45.4911 49.9475 44.5495 48.576L42.1793 50.2033C42.8027 51.1114 43.1251 52.146 43.1261 53.1907L46.0012 53.1879ZM44.5495 48.576C43.6091 47.2063 42.278 46.1214 40.7215 45.428L39.5515 48.0542C40.6492 48.5433 41.5547 49.2936 42.1793 50.2033L44.5495 48.576ZM40.7215 45.428C39.1656 44.7348 37.4353 44.4548 35.7238 44.6132L35.9888 47.4761C37.2179 47.3623 38.4533 47.565 39.5515 48.0542L40.7215 45.428ZM35.7238 44.6132C34.0123 44.7716 32.3722 45.3636 30.9912 46.3352L32.6454 48.6867C33.602 48.0138 34.7597 47.5899 35.9888 47.4761L35.7238 44.6132ZM32.7832 46.4454C31.0261 44.8542 28.8057 43.7848 26.4081 43.3539L25.8994 46.1836C27.7911 46.5236 29.5128 47.3626 30.8534 48.5766L32.7832 46.4454ZM26.4081 43.3539C24.0107 42.9229 21.5253 43.146 19.2605 43.9996L20.2745 46.69C22.0487 46.0213 24.0076 45.8435 25.8994 46.1836L26.4081 43.3539ZM19.2605 43.9996C16.9953 44.8533 15.0374 46.3057 13.6483 48.1935L15.9641 49.8975C17.006 48.4814 18.5008 47.3584 20.2745 46.69L19.2605 43.9996ZM13.6483 48.1935C12.2578 50.0832 11.5034 52.3212 11.5 54.6247L14.375 54.629C14.3775 52.9577 14.9236 51.3114 15.9641 49.8975L13.6483 48.1935ZM11.4999 54.6269C11.4999 55.436 11.8547 56.1808 12.4337 56.7071L14.3677 54.5797C14.3598 54.5726 14.3618 54.5717 14.366 54.5809C14.3704 54.5905 14.3751 54.6066 14.3751 54.6269H11.4999ZM12.4337 56.7071C13.008 57.2292 13.76 57.502 14.5188 57.502V54.6269C14.4388 54.6269 14.3864 54.5967 14.3677 54.5797L12.4337 56.7071ZM14.5188 57.502H33.4945V54.6269H14.5188V57.502ZM33.4945 57.502C34.2533 57.502 35.0053 57.2292 35.5796 56.7071L33.6456 54.5797C33.6269 54.5967 33.5745 54.6269 33.4945 54.6269V57.502ZM35.5796 56.7071C36.1586 56.1808 36.5133 55.436 36.5133 54.6269H33.6382C33.6382 54.6066 33.6429 54.5905 33.6473 54.5809C33.6515 54.5717 33.6534 54.5726 33.6456 54.5797L35.5796 56.7071Z" fill="white" mask="url(#path-2-inside-1)"/>
</svg>
