<svg width="65" height="60" viewBox="0 0 65 60" fill="none" xmlns="http://www.w3.org/2000/svg">
<path d="M64 30C64 45.9424 49.9738 59 32.5 59C15.0262 59 1 45.9424 1 30C1 14.0576 15.0262 1 32.5 1C49.9738 1 64 14.0576 64 30Z" stroke="white" stroke-width="2"/>
<path d="M32.6 27.488C34.36 27.488 35.76 27.928 36.8 28.808C37.84 29.688 38.36 30.928 38.36 32.528C38.36 34.304 37.792 35.704 36.656 36.728C35.536 37.736 33.968 38.24 31.952 38.24C31.072 38.24 30.24 38.16 29.456 38C28.688 37.84 28.04 37.608 27.512 37.304V35.312C28.088 35.664 28.784 35.944 29.6 36.152C30.432 36.344 31.224 36.44 31.976 36.44C33.24 36.44 34.256 36.144 35.024 35.552C35.808 34.944 36.2 34.008 36.2 32.744C36.2 31.624 35.856 30.768 35.168 30.176C34.48 29.568 33.392 29.264 31.904 29.264C31.456 29.264 30.944 29.304 30.368 29.384C29.792 29.464 29.328 29.544 28.976 29.624L27.92 28.952L28.568 20.864H37.16V22.784H30.368L29.96 27.752C30.232 27.704 30.6 27.648 31.064 27.584C31.528 27.52 32.04 27.488 32.6 27.488Z" fill="#4BCD9E"/>
</svg>
