<svg width="65" height="60" viewBox="0 0 65 60" fill="none" xmlns="http://www.w3.org/2000/svg">
<path d="M64 30C64 45.9424 49.9738 59 32.5 59C15.0262 59 1 45.9424 1 30C1 14.0576 15.0262 1 32.5 1C49.9738 1 64 14.0576 64 30Z" stroke="white" stroke-width="2"/>
<path d="M39.248 34.112H36.752V38H34.712V34.112H26.504V32.312L34.568 20.768H36.752V32.216H39.248V34.112ZM34.712 26.816C34.712 25.984 34.728 25.28 34.76 24.704C34.792 24.112 34.816 23.552 34.832 23.024H34.736C34.608 23.328 34.448 23.656 34.256 24.008C34.064 24.36 33.88 24.656 33.704 24.896L28.568 32.216H34.712V26.816Z" fill="#4BCD9E"/>
</svg>
