<svg width="24" height="15" viewBox="0 0 24 15" fill="none" xmlns="http://www.w3.org/2000/svg">
<path d="M0.765335 1.6075L10.7653 6.64375C11.1013 6.8125 11.536 6.8925 11.9733 6.8925C12.4107 6.8925 12.8453 6.8125 13.1813 6.64375L23.1813 1.6075C23.8333 1.27875 24.4493 0 23.2533 0H0.694669C-0.501331 0 0.114669 1.27875 0.765335 1.6075ZM23.484 4.36125L13.1813 9.395C12.728 9.6175 12.4107 9.64375 11.9733 9.64375C11.536 9.64375 11.2187 9.6175 10.7653 9.395C10.312 9.1725 1.25467 4.72125 0.514669 4.36C-0.00533112 4.105 2.15475e-06 4.40375 2.15475e-06 4.63375V13.75C2.15475e-06 14.275 0.754669 15 1.33334 15H22.6667C23.2453 15 24 14.275 24 13.75V4.635C24 4.405 24.0053 4.10625 23.484 4.36125Z" fill="#4BCD9E"/>
</svg>
