<svg width="65" height="60" viewBox="0 0 65 60" fill="none" xmlns="http://www.w3.org/2000/svg">
<path d="M64 30C64 45.9424 49.9738 59 32.5 59C15.0262 59 1 45.9424 1 30C1 14.0576 15.0262 1 32.5 1C49.9738 1 64 14.0576 64 30Z" stroke="white" stroke-width="2"/>
<path d="M34.52 38H32.456V26.024C32.456 25.336 32.464 24.784 32.48 24.368C32.496 23.952 32.52 23.52 32.552 23.072C32.296 23.328 32.064 23.544 31.856 23.72C31.648 23.896 31.384 24.12 31.064 24.392L29.24 25.88L28.136 24.464L32.768 20.864H34.52V38Z" fill="#4BCD9E"/>
</svg>
