<svg width="49" height="60" viewBox="0 0 49 60" fill="none" xmlns="http://www.w3.org/2000/svg">
<path d="M26.8086 15.0471V0.23291H16.0273C14.3117 0.23291 12.6664 0.901817 11.4532 2.09248C10.2401 3.28314 9.55859 4.89802 9.55859 6.58187V44.6756C9.55859 46.3595 10.2401 47.9743 11.4532 49.165C12.6664 50.3557 14.3117 51.0246 16.0273 51.0246H41.9067C43.6223 51.0246 45.2676 50.3557 46.4808 49.165C47.6939 47.9743 48.3754 46.3595 48.3754 44.6756V21.3961H33.273C31.5574 21.3961 29.9121 20.7272 28.6989 19.5365C27.4858 18.3459 26.8043 16.731 26.8043 15.0471H26.8086Z" fill="#8B8B8B"/>
<path d="M31.1211 15.0471V1.29102L47.293 17.1634H33.2773C32.7055 17.1634 32.157 16.9404 31.7526 16.5436C31.3483 16.1467 31.1211 15.6084 31.1211 15.0471Z" fill="#8B8B8B"/>
<path d="M0.9375 12.9309C0.9375 11.8083 1.39185 10.7317 2.2006 9.93795C3.00935 9.14418 4.10625 8.69824 5.25 8.69824V44.6757C5.25 47.4821 6.38588 50.1736 8.40775 52.158C10.4296 54.1424 13.1719 55.2573 16.0312 55.2573H39.75C39.75 56.3798 39.2956 57.4564 38.4869 58.2502C37.6781 59.044 36.5812 59.4899 35.4375 59.4899H16.2728C12.2056 59.4899 8.30501 57.9042 5.42909 55.0815C2.55317 52.2588 0.9375 48.4305 0.9375 44.4386V12.9309Z" fill="#8B8B8B"/>
</svg>
