<svg width="54" height="52" viewBox="0 0 54 52" fill="none" xmlns="http://www.w3.org/2000/svg">
<path d="M13.3419 4.33301C10.8736 4.33301 8.89453 6.26134 8.89453 8.66634V43.333C8.89453 44.4823 9.36309 45.5845 10.1971 46.3971C11.0312 47.2098 12.1624 47.6663 13.3419 47.6663H40.0261C41.2056 47.6663 42.3368 47.2098 43.1709 46.3971C44.0049 45.5845 44.4735 44.4823 44.4735 43.333V17.333L31.1314 4.33301H13.3419ZM28.9077 7.58301L41.138 19.4997H28.9077V7.58301ZM26.684 23.833C28.4533 23.833 30.1501 24.5178 31.4012 25.7368C32.6522 26.9558 33.3551 28.6091 33.3551 30.333C33.3551 34.4063 28.3518 34.7963 28.3518 38.458H25.0162C25.0162 33.1713 30.0195 33.583 30.0195 30.333C30.0195 29.4711 29.6681 28.6444 29.0426 28.0349C28.417 27.4254 27.5686 27.083 26.684 27.083C25.7994 27.083 24.951 27.4254 24.3254 28.0349C23.6999 28.6444 23.3485 29.4711 23.3485 30.333H20.013C20.013 28.6091 20.7158 26.9558 21.9669 25.7368C23.2179 24.5178 24.9147 23.833 26.684 23.833ZM25.0162 40.083H28.3518V43.333H25.0162V40.083Z" fill="#8B8B8B"/>
</svg>
