<svg width="23" height="21" viewBox="0 0 23 21" fill="none" xmlns="http://www.w3.org/2000/svg">
<path fill-rule="evenodd" clip-rule="evenodd" d="M2.71036 0.670575C2.96189 0.441267 3.26392 0.263383 3.59643 0.148712C3.92895 0.0340411 4.28436 -0.0147984 4.63911 0.00543016C4.99387 0.0256587 5.33986 0.114493 5.65417 0.266047C5.96847 0.417601 6.24392 0.628413 6.46224 0.884513L9.04255 3.91114C9.51549 4.46633 9.68224 5.18951 9.49537 5.87201L8.70905 8.74639C8.6684 8.89526 8.67059 9.05121 8.71543 9.19908C8.76026 9.34695 8.84621 9.48173 8.96493 9.59033L12.4969 12.8151C12.6159 12.9238 12.7638 13.0024 12.926 13.0433C13.0883 13.0842 13.2593 13.0861 13.4226 13.0488L16.5693 12.3308C16.9382 12.2466 17.3232 12.2401 17.6953 12.3117C18.0673 12.3833 18.4167 12.5312 18.7169 12.7443L22.0318 15.0989C23.2235 15.9454 23.3327 17.5533 22.2661 18.5258L20.7797 19.8829C19.716 20.8542 18.1261 21.2808 16.6441 20.8043C12.8508 19.5857 9.40663 17.6029 6.56718 15.0031C3.7199 12.4109 1.5483 9.26674 0.213427 5.80376C-0.306948 4.45189 0.160239 2.99895 1.22399 2.0277L2.71036 0.670575Z" fill="#4BCD9E"/>
</svg>
