<svg width="65" height="60" viewBox="0 0 65 60" fill="none" xmlns="http://www.w3.org/2000/svg">
<path d="M64 30C64 45.9424 49.9738 59 32.5 59C15.0262 59 1 45.9424 1 30C1 14.0576 15.0262 1 32.5 1C49.9738 1 64 14.0576 64 30Z" stroke="white" stroke-width="2"/>
<path d="M27.32 30.68C27.32 29.448 27.424 28.24 27.632 27.056C27.856 25.856 28.248 24.776 28.808 23.816C29.384 22.84 30.184 22.064 31.208 21.488C32.232 20.912 33.552 20.624 35.168 20.624C35.504 20.624 35.872 20.64 36.272 20.672C36.688 20.704 37.024 20.76 37.28 20.84V22.64C36.992 22.544 36.664 22.472 36.296 22.424C35.944 22.376 35.584 22.352 35.216 22.352C34.112 22.352 33.192 22.536 32.456 22.904C31.72 23.272 31.136 23.776 30.704 24.416C30.288 25.056 29.984 25.792 29.792 26.624C29.6 27.456 29.48 28.344 29.432 29.288H29.576C29.944 28.728 30.456 28.256 31.112 27.872C31.768 27.472 32.608 27.272 33.632 27.272C35.12 27.272 36.32 27.728 37.232 28.64C38.144 29.536 38.6 30.816 38.6 32.48C38.6 34.272 38.104 35.68 37.112 36.704C36.136 37.728 34.816 38.24 33.152 38.24C32.064 38.24 31.08 37.968 30.2 37.424C29.32 36.88 28.616 36.048 28.088 34.928C27.576 33.808 27.32 32.392 27.32 30.68ZM33.128 36.464C34.136 36.464 34.952 36.144 35.576 35.504C36.2 34.848 36.512 33.84 36.512 32.48C36.512 31.392 36.232 30.528 35.672 29.888C35.128 29.248 34.304 28.928 33.2 28.928C32.448 28.928 31.792 29.088 31.232 29.408C30.672 29.712 30.232 30.104 29.912 30.584C29.608 31.064 29.456 31.56 29.456 32.072C29.456 32.76 29.592 33.448 29.864 34.136C30.136 34.808 30.544 35.368 31.088 35.816C31.632 36.248 32.312 36.464 33.128 36.464Z" fill="#4BCD9E"/>
</svg>
