<svg width="65" height="60" viewBox="0 0 65 60" fill="none" xmlns="http://www.w3.org/2000/svg">
<path d="M64 30C64 45.9424 49.9738 59 32.5 59C15.0262 59 1 45.9424 1 30C1 14.0576 15.0262 1 32.5 1C49.9738 1 64 14.0576 64 30Z" stroke="white" stroke-width="2"/>
<path d="M37.832 24.872C37.832 26.024 37.512 26.944 36.872 27.632C36.232 28.304 35.368 28.752 34.28 28.976V29.072C35.656 29.232 36.68 29.664 37.352 30.368C38.024 31.072 38.36 31.992 38.36 33.128C38.36 34.12 38.128 35.008 37.664 35.792C37.2 36.56 36.48 37.16 35.504 37.592C34.544 38.024 33.304 38.24 31.784 38.24C30.888 38.24 30.056 38.168 29.288 38.024C28.52 37.896 27.784 37.656 27.08 37.304V35.336C27.8 35.688 28.576 35.968 29.408 36.176C30.24 36.368 31.04 36.464 31.808 36.464C33.344 36.464 34.448 36.168 35.12 35.576C35.808 34.968 36.152 34.136 36.152 33.08C36.152 32.008 35.728 31.24 34.88 30.776C34.048 30.296 32.872 30.056 31.352 30.056H29.696V28.256H31.376C32.784 28.256 33.848 27.96 34.568 27.368C35.304 26.776 35.672 25.992 35.672 25.016C35.672 24.184 35.392 23.544 34.832 23.096C34.272 22.632 33.512 22.4 32.552 22.4C31.624 22.4 30.832 22.536 30.176 22.808C29.52 23.08 28.872 23.424 28.232 23.84L27.176 22.4C27.784 21.92 28.536 21.504 29.432 21.152C30.344 20.8 31.376 20.624 32.528 20.624C34.32 20.624 35.648 21.024 36.512 21.824C37.392 22.624 37.832 23.64 37.832 24.872Z" fill="#4BCD9E"/>
</svg>
