<svg width="65" height="60" viewBox="0 0 65 60" fill="none" xmlns="http://www.w3.org/2000/svg">
<path d="M64 30C64 45.9424 49.9738 59 32.5 59C15.0262 59 1 45.9424 1 30C1 14.0576 15.0262 1 32.5 1C49.9738 1 64 14.0576 64 30Z" stroke="white" stroke-width="2"/>
<path d="M38.48 38H27.152V36.248L31.64 31.712C32.504 30.848 33.232 30.08 33.824 29.408C34.416 28.736 34.864 28.08 35.168 27.44C35.472 26.784 35.624 26.072 35.624 25.304C35.624 24.36 35.344 23.648 34.784 23.168C34.224 22.672 33.496 22.424 32.6 22.424C31.768 22.424 31.032 22.568 30.392 22.856C29.768 23.144 29.128 23.544 28.472 24.056L27.344 22.64C28.016 22.08 28.784 21.608 29.648 21.224C30.528 20.824 31.512 20.624 32.6 20.624C34.2 20.624 35.464 21.032 36.392 21.848C37.32 22.648 37.784 23.76 37.784 25.184C37.784 26.08 37.6 26.92 37.232 27.704C36.864 28.488 36.352 29.264 35.696 30.032C35.04 30.784 34.272 31.592 33.392 32.456L29.816 35.984V36.08H38.48V38Z" fill="#4BCD9E"/>
</svg>
